<mxfile host="65bd71144e" pages="2">
    <diagram name="BWCE build deploy" id="iLxm1rJFiepoab0-mT7t">
        <mxGraphModel dx="1198" dy="779" grid="1" gridSize="10" guides="1" tooltips="1" connect="1" arrows="1" fold="1" page="1" pageScale="1" pageWidth="850" pageHeight="1100" math="0" shadow="0" adaptiveColors="simple">
            <root>
                <mxCell id="lE7AwRk2z-wl5WA6yF-I-0"/>
                <mxCell id="lE7AwRk2z-wl5WA6yF-I-1" parent="lE7AwRk2z-wl5WA6yF-I-0"/>
                <mxCell id="lE7AwRk2z-wl5WA6yF-I-2" value="" style="edgeStyle=none;html=1;startArrow=none;startFill=0;exitX=1;exitY=0.5;exitDx=0;exitDy=0;entryX=0;entryY=0.5;entryDx=0;entryDy=0;endArrow=classic;endFill=1;dashed=1;dashPattern=8 8;fontStyle=1" parent="lE7AwRk2z-wl5WA6yF-I-1" target="lE7AwRk2z-wl5WA6yF-I-7" edge="1">
                    <mxGeometry relative="1" as="geometry">
                        <mxPoint x="630" y="200" as="sourcePoint"/>
                        <mxPoint x="715" y="240" as="targetPoint"/>
                    </mxGeometry>
                </mxCell>
                <mxCell id="lE7AwRk2z-wl5WA6yF-I-3" value="ear" style="edgeLabel;html=1;align=center;verticalAlign=middle;resizable=0;points=[];rounded=1;fontStyle=1" parent="lE7AwRk2z-wl5WA6yF-I-2" vertex="1" connectable="0">
                    <mxGeometry x="0.0176" y="-1" relative="1" as="geometry">
                        <mxPoint y="-11" as="offset"/>
                    </mxGeometry>
                </mxCell>
                <mxCell id="lE7AwRk2z-wl5WA6yF-I-5" value="" style="edgeStyle=none;html=1;fontStyle=1" parent="lE7AwRk2z-wl5WA6yF-I-1" source="lE7AwRk2z-wl5WA6yF-I-7" target="lE7AwRk2z-wl5WA6yF-I-10" edge="1">
                    <mxGeometry relative="1" as="geometry"/>
                </mxCell>
                <mxCell id="lE7AwRk2z-wl5WA6yF-I-6" value="&lt;span style=&quot;font-size: 12px; text-wrap-mode: wrap; background-color: rgb(236, 236, 236);&quot;&gt;ear&lt;/span&gt;" style="edgeLabel;html=1;align=center;verticalAlign=middle;resizable=0;points=[];rounded=1;fontStyle=1" parent="lE7AwRk2z-wl5WA6yF-I-5" vertex="1" connectable="0">
                    <mxGeometry x="0.125" y="-1" relative="1" as="geometry">
                        <mxPoint as="offset"/>
                    </mxGeometry>
                </mxCell>
                <mxCell id="lE7AwRk2z-wl5WA6yF-I-7" value="Retrieve bwce app (ear)" style="rounded=1;whiteSpace=wrap;html=1;fillColor=#dae8fc;strokeColor=#6c8ebf;fontStyle=1" parent="lE7AwRk2z-wl5WA6yF-I-1" vertex="1">
                    <mxGeometry x="745" y="170" width="120" height="60" as="geometry"/>
                </mxCell>
                <mxCell id="lE7AwRk2z-wl5WA6yF-I-8" style="edgeStyle=none;html=1;entryX=0.5;entryY=0;entryDx=0;entryDy=0;fontStyle=1" parent="lE7AwRk2z-wl5WA6yF-I-1" source="lE7AwRk2z-wl5WA6yF-I-10" target="lE7AwRk2z-wl5WA6yF-I-13" edge="1">
                    <mxGeometry relative="1" as="geometry"/>
                </mxCell>
                <mxCell id="lE7AwRk2z-wl5WA6yF-I-9" value="buildId" style="edgeLabel;html=1;align=center;verticalAlign=middle;resizable=0;points=[];rounded=1;fontStyle=1" parent="lE7AwRk2z-wl5WA6yF-I-8" vertex="1" connectable="0">
                    <mxGeometry x="-0.04" y="-1" relative="1" as="geometry">
                        <mxPoint as="offset"/>
                    </mxGeometry>
                </mxCell>
                <mxCell id="lE7AwRk2z-wl5WA6yF-I-10" value="create app build" style="whiteSpace=wrap;html=1;rounded=1;fillColor=#dae8fc;strokeColor=#6c8ebf;fontStyle=1" parent="lE7AwRk2z-wl5WA6yF-I-1" vertex="1">
                    <mxGeometry x="745" y="288" width="120" height="60" as="geometry"/>
                </mxCell>
                <mxCell id="lE7AwRk2z-wl5WA6yF-I-11" style="edgeStyle=none;html=1;entryX=0.5;entryY=0;entryDx=0;entryDy=0;fontStyle=1" parent="lE7AwRk2z-wl5WA6yF-I-1" source="lE7AwRk2z-wl5WA6yF-I-13" target="lE7AwRk2z-wl5WA6yF-I-16" edge="1">
                    <mxGeometry relative="1" as="geometry"/>
                </mxCell>
                <mxCell id="lE7AwRk2z-wl5WA6yF-I-12" value="values.yaml" style="edgeLabel;html=1;align=center;verticalAlign=middle;resizable=0;points=[];rounded=1;fontStyle=1" parent="lE7AwRk2z-wl5WA6yF-I-11" vertex="1" connectable="0">
                    <mxGeometry x="-0.24" y="-1" relative="1" as="geometry">
                        <mxPoint as="offset"/>
                    </mxGeometry>
                </mxCell>
                <mxCell id="lE7AwRk2z-wl5WA6yF-I-13" value="retrieve deployment configuration" style="whiteSpace=wrap;html=1;rounded=1;fillColor=#dae8fc;strokeColor=#6c8ebf;fontStyle=1" parent="lE7AwRk2z-wl5WA6yF-I-1" vertex="1">
                    <mxGeometry x="745" y="405" width="120" height="60" as="geometry"/>
                </mxCell>
                <mxCell id="lE7AwRk2z-wl5WA6yF-I-14" value="" style="edgeStyle=none;html=1;fontStyle=1" parent="lE7AwRk2z-wl5WA6yF-I-1" source="lE7AwRk2z-wl5WA6yF-I-16" target="lE7AwRk2z-wl5WA6yF-I-18" edge="1">
                    <mxGeometry relative="1" as="geometry"/>
                </mxCell>
                <mxCell id="lE7AwRk2z-wl5WA6yF-I-15" value="appId, scalesize" style="edgeLabel;html=1;align=center;verticalAlign=middle;resizable=0;points=[];rounded=1;fontStyle=1" parent="lE7AwRk2z-wl5WA6yF-I-14" vertex="1" connectable="0">
                    <mxGeometry x="-0.2" y="-1" relative="1" as="geometry">
                        <mxPoint as="offset"/>
                    </mxGeometry>
                </mxCell>
                <mxCell id="lE7AwRk2z-wl5WA6yF-I-16" value="create release" style="whiteSpace=wrap;html=1;rounded=1;fillColor=#dae8fc;strokeColor=#6c8ebf;fontStyle=1" parent="lE7AwRk2z-wl5WA6yF-I-1" vertex="1">
                    <mxGeometry x="745" y="523" width="120" height="60" as="geometry"/>
                </mxCell>
                <mxCell id="lE7AwRk2z-wl5WA6yF-I-17" style="edgeStyle=orthogonalEdgeStyle;rounded=0;orthogonalLoop=1;jettySize=auto;html=1;fontStyle=1" parent="lE7AwRk2z-wl5WA6yF-I-1" source="lE7AwRk2z-wl5WA6yF-I-18" target="lE7AwRk2z-wl5WA6yF-I-19" edge="1">
                    <mxGeometry relative="1" as="geometry"/>
                </mxCell>
                <mxCell id="lE7AwRk2z-wl5WA6yF-I-18" value="scale deployment" style="whiteSpace=wrap;html=1;rounded=1;fillColor=#dae8fc;strokeColor=#6c8ebf;fontStyle=1" parent="lE7AwRk2z-wl5WA6yF-I-1" vertex="1">
                    <mxGeometry x="745" y="640" width="120" height="60" as="geometry"/>
                </mxCell>
                <mxCell id="lE7AwRk2z-wl5WA6yF-I-19" value="Running" style="whiteSpace=wrap;html=1;rounded=1;fillColor=#d5e8d4;strokeColor=#82b366;fontStyle=1" parent="lE7AwRk2z-wl5WA6yF-I-1" vertex="1">
                    <mxGeometry x="745" y="740" width="120" height="60" as="geometry"/>
                </mxCell>
                <mxCell id="Vqp8nwoRpLKPQb1kXyG2-0" value="" style="edgeStyle=none;html=1;startArrow=none;startFill=0;exitX=1;exitY=0.5;exitDx=0;exitDy=0;entryX=0;entryY=0.5;entryDx=0;entryDy=0;endArrow=classic;endFill=1;dashed=1;dashPattern=8 8;fontStyle=1" parent="lE7AwRk2z-wl5WA6yF-I-1" target="Vqp8nwoRpLKPQb1kXyG2-5" edge="1">
                    <mxGeometry relative="1" as="geometry">
                        <mxPoint x="75" y="200" as="sourcePoint"/>
                        <mxPoint x="160" y="240" as="targetPoint"/>
                    </mxGeometry>
                </mxCell>
                <mxCell id="Vqp8nwoRpLKPQb1kXyG2-1" value="ear" style="edgeLabel;html=1;align=center;verticalAlign=middle;resizable=0;points=[];rounded=1;fontStyle=1" parent="Vqp8nwoRpLKPQb1kXyG2-0" vertex="1" connectable="0">
                    <mxGeometry x="0.0176" y="-1" relative="1" as="geometry">
                        <mxPoint y="-11" as="offset"/>
                    </mxGeometry>
                </mxCell>
                <mxCell id="Vqp8nwoRpLKPQb1kXyG2-2" value="bwce project" style="edgeLabel;html=1;align=center;verticalAlign=middle;resizable=0;points=[];" parent="Vqp8nwoRpLKPQb1kXyG2-0" vertex="1" connectable="0">
                    <mxGeometry x="0.0744" y="8" relative="1" as="geometry">
                        <mxPoint x="-17" as="offset"/>
                    </mxGeometry>
                </mxCell>
                <mxCell id="Vqp8nwoRpLKPQb1kXyG2-3" value="" style="edgeStyle=none;html=1;fontStyle=1" parent="lE7AwRk2z-wl5WA6yF-I-1" source="Vqp8nwoRpLKPQb1kXyG2-5" target="Vqp8nwoRpLKPQb1kXyG2-7" edge="1">
                    <mxGeometry relative="1" as="geometry"/>
                </mxCell>
                <mxCell id="Vqp8nwoRpLKPQb1kXyG2-4" value="&lt;span style=&quot;font-size: 12px; text-wrap-mode: wrap; background-color: rgb(236, 236, 236);&quot;&gt;bwce code&lt;/span&gt;" style="edgeLabel;html=1;align=center;verticalAlign=middle;resizable=0;points=[];rounded=1;fontStyle=1" parent="Vqp8nwoRpLKPQb1kXyG2-3" vertex="1" connectable="0">
                    <mxGeometry x="0.125" y="-1" relative="1" as="geometry">
                        <mxPoint x="1" y="-5" as="offset"/>
                    </mxGeometry>
                </mxCell>
                <mxCell id="Vqp8nwoRpLKPQb1kXyG2-5" value="Retrieve bwce project&amp;nbsp;" style="rounded=1;whiteSpace=wrap;html=1;fillColor=#dae8fc;strokeColor=#6c8ebf;fontStyle=1" parent="lE7AwRk2z-wl5WA6yF-I-1" vertex="1">
                    <mxGeometry x="190" y="170" width="120" height="60" as="geometry"/>
                </mxCell>
                <mxCell id="Vqp8nwoRpLKPQb1kXyG2-6" style="edgeStyle=none;html=1;entryX=0.5;entryY=0;entryDx=0;entryDy=0;fontStyle=1" parent="lE7AwRk2z-wl5WA6yF-I-1" source="Vqp8nwoRpLKPQb1kXyG2-7" target="Vqp8nwoRpLKPQb1kXyG2-10" edge="1">
                    <mxGeometry relative="1" as="geometry"/>
                </mxCell>
                <mxCell id="Vqp8nwoRpLKPQb1kXyG2-7" value="unit test" style="whiteSpace=wrap;html=1;rounded=1;fillColor=#dae8fc;strokeColor=#6c8ebf;fontStyle=1" parent="lE7AwRk2z-wl5WA6yF-I-1" vertex="1">
                    <mxGeometry x="190" y="288" width="120" height="60" as="geometry"/>
                </mxCell>
                <mxCell id="Vqp8nwoRpLKPQb1kXyG2-8" style="edgeStyle=none;html=1;entryX=0.5;entryY=0;entryDx=0;entryDy=0;fontStyle=1" parent="lE7AwRk2z-wl5WA6yF-I-1" source="Vqp8nwoRpLKPQb1kXyG2-10" target="Vqp8nwoRpLKPQb1kXyG2-12" edge="1">
                    <mxGeometry relative="1" as="geometry"/>
                </mxCell>
                <mxCell id="Vqp8nwoRpLKPQb1kXyG2-9" value="ear" style="edgeLabel;html=1;align=center;verticalAlign=middle;resizable=0;points=[];rounded=1;fontStyle=1" parent="Vqp8nwoRpLKPQb1kXyG2-8" vertex="1" connectable="0">
                    <mxGeometry x="-0.24" y="-1" relative="1" as="geometry">
                        <mxPoint as="offset"/>
                    </mxGeometry>
                </mxCell>
                <mxCell id="Vqp8nwoRpLKPQb1kXyG2-10" value="build ear" style="whiteSpace=wrap;html=1;rounded=1;fillColor=#dae8fc;strokeColor=#6c8ebf;fontStyle=1" parent="lE7AwRk2z-wl5WA6yF-I-1" vertex="1">
                    <mxGeometry x="190" y="405" width="120" height="60" as="geometry"/>
                </mxCell>
                <mxCell id="Vqp8nwoRpLKPQb1kXyG2-11" style="edgeStyle=none;html=1;entryX=0;entryY=0.5;entryDx=0;entryDy=0;dashed=1;dashPattern=8 8;" parent="lE7AwRk2z-wl5WA6yF-I-1" source="Vqp8nwoRpLKPQb1kXyG2-12" target="Vqp8nwoRpLKPQb1kXyG2-14" edge="1">
                    <mxGeometry relative="1" as="geometry"/>
                </mxCell>
                <mxCell id="Vqp8nwoRpLKPQb1kXyG2-17" value="ear" style="edgeLabel;html=1;align=center;verticalAlign=middle;resizable=0;points=[];" parent="Vqp8nwoRpLKPQb1kXyG2-11" vertex="1" connectable="0">
                    <mxGeometry x="0.0356" y="1" relative="1" as="geometry">
                        <mxPoint as="offset"/>
                    </mxGeometry>
                </mxCell>
                <mxCell id="Vqp8nwoRpLKPQb1kXyG2-12" value="store ear" style="whiteSpace=wrap;html=1;rounded=1;fillColor=#dae8fc;strokeColor=#6c8ebf;fontStyle=1" parent="lE7AwRk2z-wl5WA6yF-I-1" vertex="1">
                    <mxGeometry x="190" y="523" width="120" height="60" as="geometry"/>
                </mxCell>
                <mxCell id="Vqp8nwoRpLKPQb1kXyG2-13" value="" style="verticalLabelPosition=bottom;html=1;verticalAlign=top;align=center;strokeColor=none;fillColor=#00BEF2;shape=mxgraph.azure.github_code;pointerEvents=1;" parent="lE7AwRk2z-wl5WA6yF-I-1" vertex="1">
                    <mxGeometry x="20" y="170" width="50" height="50" as="geometry"/>
                </mxCell>
                <mxCell id="Vqp8nwoRpLKPQb1kXyG2-14" value="devops&lt;div&gt;package&lt;/div&gt;" style="editableCssRules=.*;html=1;shape=image;verticalLabelPosition=bottom;labelBackgroundColor=#ffffff;verticalAlign=top;aspect=fixed;imageAspect=0;image=data:image/svg+xml,PHN2ZyB4bWxucz0iaHR0cDovL3d3dy53My5vcmcvMjAwMC9zdmciIHhtbG5zOnY9Imh0dHBzOi8vdmVjdGEuaW8vbmFubyIgd2lkdGg9IjIxLjk5OTAwMDU0OTMxNjQwNiIgaGVpZ2h0PSIyMC4zOTM5OTkwOTk3MzE0NDUiIHZpZXdCb3g9IjAgMCAyMS45OTkwMDA1NDkzMTY0MDYgMjAuMzkzOTk5MDk5NzMxNDQ1Ij4mI3hhOwk8c3R5bGUgdHlwZT0idGV4dC9jc3MiPiYjeGE7CS5zdDB7ZmlsbDojNDI4NWY0O2ZpbGwtcnVsZTpldmVub2RkfSYjeGE7CTwvc3R5bGU+JiN4YTsJPHBhdGggY2xhc3M9InN0MCIgZD0iTTUgMHYyLjQ1OEwxLjk5OSA0LjE5N3YxMi4wMUw1IDE3LjkzOHYyLjQ1NmwtNS0yLjg4N1YyLjg4NnptMTIgMGw0Ljk5OSAyLjg4NnYxNC42MjFMMTcgMjAuMzk0di0yLjQ1NmwzLTEuNzMxVjQuMTk3bC0zLTEuNzM5em0tNi4wMTYgNi42NzNsMi45NDctMS42NDYtMi45NDctMS42NDYtMi45NDcgMS42NDZ6bTMuMjY4LTEuMDk2bC0yLjg3MSAxLjY3OHYzLjI4N2wyLjg3MS0xLjY3NnpNNy43NzMgOC44NjZsMi44NzEgMS42NzRWNy4yNTZMNy43NzMgNS41Nzd6bS0uMjEyIDMuODc4bDIuODItMS42NDYtMi44Mi0xLjY0Ni0yLjgyIDEuNjQ2em0zLjEzMi0xLjA5OGwtMi44NzEgMS42Nzh2My4yODdsMi44NzEtMS42NzZ6bS02LjI2NCAzLjI4OUw3LjMgMTYuNjA5di0zLjI4NWwtMi44NzEtMS42Nzl6bTEwLjAyOS0yLjE5MWwyLjgyLTEuNjQ2LTIuODItMS42NDYtMi44MiAxLjY0NnptMy4xMzItMS4wOThsLTIuODcxIDEuNjc4djMuMjg3bDIuODcxLTEuNjc2em0tNi4yNjQgMy4yODlsMi44NzEgMS42NzR2LTMuMjg1bC0yLjg3MS0xLjY3OXoiLz4mI3hhOzwvc3ZnPg==;rounded=1;fontStyle=1" parent="lE7AwRk2z-wl5WA6yF-I-1" vertex="1">
                    <mxGeometry x="410" y="529" width="53.33" height="48" as="geometry"/>
                </mxCell>
                <mxCell id="Vqp8nwoRpLKPQb1kXyG2-15" value="devops&lt;div&gt;package&lt;/div&gt;" style="editableCssRules=.*;html=1;shape=image;verticalLabelPosition=bottom;labelBackgroundColor=#ffffff;verticalAlign=top;aspect=fixed;imageAspect=0;image=data:image/svg+xml,PHN2ZyB4bWxucz0iaHR0cDovL3d3dy53My5vcmcvMjAwMC9zdmciIHhtbG5zOnY9Imh0dHBzOi8vdmVjdGEuaW8vbmFubyIgd2lkdGg9IjIxLjk5OTAwMDU0OTMxNjQwNiIgaGVpZ2h0PSIyMC4zOTM5OTkwOTk3MzE0NDUiIHZpZXdCb3g9IjAgMCAyMS45OTkwMDA1NDkzMTY0MDYgMjAuMzkzOTk5MDk5NzMxNDQ1Ij4mI3hhOwk8c3R5bGUgdHlwZT0idGV4dC9jc3MiPiYjeGE7CS5zdDB7ZmlsbDojNDI4NWY0O2ZpbGwtcnVsZTpldmVub2RkfSYjeGE7CTwvc3R5bGU+JiN4YTsJPHBhdGggY2xhc3M9InN0MCIgZD0iTTUgMHYyLjQ1OEwxLjk5OSA0LjE5N3YxMi4wMUw1IDE3LjkzOHYyLjQ1NmwtNS0yLjg4N1YyLjg4NnptMTIgMGw0Ljk5OSAyLjg4NnYxNC42MjFMMTcgMjAuMzk0di0yLjQ1NmwzLTEuNzMxVjQuMTk3bC0zLTEuNzM5em0tNi4wMTYgNi42NzNsMi45NDctMS42NDYtMi45NDctMS42NDYtMi45NDcgMS42NDZ6bTMuMjY4LTEuMDk2bC0yLjg3MSAxLjY3OHYzLjI4N2wyLjg3MS0xLjY3NnpNNy43NzMgOC44NjZsMi44NzEgMS42NzRWNy4yNTZMNy43NzMgNS41Nzd6bS0uMjEyIDMuODc4bDIuODItMS42NDYtMi44Mi0xLjY0Ni0yLjgyIDEuNjQ2em0zLjEzMi0xLjA5OGwtMi44NzEgMS42Nzh2My4yODdsMi44NzEtMS42NzZ6bS02LjI2NCAzLjI4OUw3LjMgMTYuNjA5di0zLjI4NWwtMi44NzEtMS42Nzl6bTEwLjAyOS0yLjE5MWwyLjgyLTEuNjQ2LTIuODItMS42NDYtMi44MiAxLjY0NnptMy4xMzItMS4wOThsLTIuODcxIDEuNjc4djMuMjg3bDIuODcxLTEuNjc2em0tNi4yNjQgMy4yODlsMi44NzEgMS42NzR2LTMuMjg1bC0yLjg3MS0xLjY3OXoiLz4mI3hhOzwvc3ZnPg==;rounded=1;fontStyle=1" parent="lE7AwRk2z-wl5WA6yF-I-1" vertex="1">
                    <mxGeometry x="570" y="176" width="53.33" height="48" as="geometry"/>
                </mxCell>
            </root>
        </mxGraphModel>
    </diagram>
    <diagram name="Flogo deploy" id="H5pfEAmAzWhElHxojxtG">
        <mxGraphModel dx="1198" dy="779" grid="1" gridSize="10" guides="1" tooltips="1" connect="1" arrows="1" fold="1" page="1" pageScale="1" pageWidth="850" pageHeight="1100" math="0" shadow="0" adaptiveColors="simple">
            <root>
                <mxCell id="oRBbWyLs1qXYL8ngHKHL-0"/>
                <mxCell id="oRBbWyLs1qXYL8ngHKHL-1" parent="oRBbWyLs1qXYL8ngHKHL-0"/>
                <mxCell id="oRBbWyLs1qXYL8ngHKHL-2" value="" style="edgeStyle=none;html=1;startArrow=none;startFill=0;exitX=1;exitY=0.5;exitDx=0;exitDy=0;entryX=0;entryY=0.5;entryDx=0;entryDy=0;endArrow=classic;endFill=1;dashed=1;dashPattern=8 8;fontStyle=1" parent="oRBbWyLs1qXYL8ngHKHL-1" target="oRBbWyLs1qXYL8ngHKHL-8" edge="1">
                    <mxGeometry relative="1" as="geometry">
                        <mxPoint x="125" y="200" as="sourcePoint"/>
                        <mxPoint x="210" y="240" as="targetPoint"/>
                    </mxGeometry>
                </mxCell>
                <mxCell id="oRBbWyLs1qXYL8ngHKHL-3" value=".flogo" style="edgeLabel;html=1;align=center;verticalAlign=middle;resizable=0;points=[];rounded=1;fontStyle=1" parent="oRBbWyLs1qXYL8ngHKHL-2" vertex="1" connectable="0">
                    <mxGeometry x="0.0176" y="-1" relative="1" as="geometry">
                        <mxPoint y="-11" as="offset"/>
                    </mxGeometry>
                </mxCell>
                <mxCell id="oRBbWyLs1qXYL8ngHKHL-5" value="" style="edgeStyle=none;html=1;fontStyle=1" parent="oRBbWyLs1qXYL8ngHKHL-1" source="oRBbWyLs1qXYL8ngHKHL-8" target="oRBbWyLs1qXYL8ngHKHL-10" edge="1">
                    <mxGeometry relative="1" as="geometry"/>
                </mxCell>
                <mxCell id="pte-rjKt5ficqMEGZh8k-0" value="&lt;span style=&quot;font-size: 12px; text-wrap-mode: wrap; background-color: rgb(236, 236, 236);&quot;&gt;(flogo json)&lt;/span&gt;" style="edgeLabel;html=1;align=center;verticalAlign=middle;resizable=0;points=[];rounded=1;fontStyle=1" parent="oRBbWyLs1qXYL8ngHKHL-5" vertex="1" connectable="0">
                    <mxGeometry x="0.125" y="-1" relative="1" as="geometry">
                        <mxPoint as="offset"/>
                    </mxGeometry>
                </mxCell>
                <mxCell id="oRBbWyLs1qXYL8ngHKHL-8" value="Retrieve flogo app (flogo json)" style="rounded=1;whiteSpace=wrap;html=1;fillColor=#dae8fc;strokeColor=#6c8ebf;fontStyle=1" parent="oRBbWyLs1qXYL8ngHKHL-1" vertex="1">
                    <mxGeometry x="240" y="170" width="120" height="60" as="geometry"/>
                </mxCell>
                <mxCell id="oRBbWyLs1qXYL8ngHKHL-9" style="edgeStyle=none;html=1;entryX=0.5;entryY=0;entryDx=0;entryDy=0;fontStyle=1" parent="oRBbWyLs1qXYL8ngHKHL-1" source="oRBbWyLs1qXYL8ngHKHL-10" target="oRBbWyLs1qXYL8ngHKHL-15" edge="1">
                    <mxGeometry relative="1" as="geometry"/>
                </mxCell>
                <mxCell id="pte-rjKt5ficqMEGZh8k-1" value="buildId" style="edgeLabel;html=1;align=center;verticalAlign=middle;resizable=0;points=[];rounded=1;fontStyle=1" parent="oRBbWyLs1qXYL8ngHKHL-9" vertex="1" connectable="0">
                    <mxGeometry x="-0.04" y="-1" relative="1" as="geometry">
                        <mxPoint as="offset"/>
                    </mxGeometry>
                </mxCell>
                <mxCell id="oRBbWyLs1qXYL8ngHKHL-10" value="create app build" style="whiteSpace=wrap;html=1;rounded=1;fillColor=#dae8fc;strokeColor=#6c8ebf;fontStyle=1" parent="oRBbWyLs1qXYL8ngHKHL-1" vertex="1">
                    <mxGeometry x="240" y="310" width="120" height="60" as="geometry"/>
                </mxCell>
                <mxCell id="oRBbWyLs1qXYL8ngHKHL-14" style="edgeStyle=none;html=1;entryX=0.5;entryY=0;entryDx=0;entryDy=0;fontStyle=1" parent="oRBbWyLs1qXYL8ngHKHL-1" source="oRBbWyLs1qXYL8ngHKHL-15" target="oRBbWyLs1qXYL8ngHKHL-22" edge="1">
                    <mxGeometry relative="1" as="geometry"/>
                </mxCell>
                <mxCell id="pte-rjKt5ficqMEGZh8k-2" value="values.yaml" style="edgeLabel;html=1;align=center;verticalAlign=middle;resizable=0;points=[];rounded=1;fontStyle=1" parent="oRBbWyLs1qXYL8ngHKHL-14" vertex="1" connectable="0">
                    <mxGeometry x="-0.24" y="-1" relative="1" as="geometry">
                        <mxPoint as="offset"/>
                    </mxGeometry>
                </mxCell>
                <mxCell id="oRBbWyLs1qXYL8ngHKHL-15" value="retrieve deployment configuration" style="whiteSpace=wrap;html=1;rounded=1;fillColor=#dae8fc;strokeColor=#6c8ebf;fontStyle=1" parent="oRBbWyLs1qXYL8ngHKHL-1" vertex="1">
                    <mxGeometry x="240" y="420" width="120" height="60" as="geometry"/>
                </mxCell>
                <mxCell id="oRBbWyLs1qXYL8ngHKHL-21" value="" style="edgeStyle=none;html=1;fontStyle=1" parent="oRBbWyLs1qXYL8ngHKHL-1" source="oRBbWyLs1qXYL8ngHKHL-22" target="oRBbWyLs1qXYL8ngHKHL-28" edge="1">
                    <mxGeometry relative="1" as="geometry"/>
                </mxCell>
                <mxCell id="pte-rjKt5ficqMEGZh8k-3" value="appId, scalesize" style="edgeLabel;html=1;align=center;verticalAlign=middle;resizable=0;points=[];rounded=1;fontStyle=1" parent="oRBbWyLs1qXYL8ngHKHL-21" vertex="1" connectable="0">
                    <mxGeometry x="-0.2" y="-1" relative="1" as="geometry">
                        <mxPoint as="offset"/>
                    </mxGeometry>
                </mxCell>
                <mxCell id="oRBbWyLs1qXYL8ngHKHL-22" value="create release" style="whiteSpace=wrap;html=1;rounded=1;fillColor=#dae8fc;strokeColor=#6c8ebf;fontStyle=1" parent="oRBbWyLs1qXYL8ngHKHL-1" vertex="1">
                    <mxGeometry x="240" y="530" width="120" height="60" as="geometry"/>
                </mxCell>
                <mxCell id="pte-rjKt5ficqMEGZh8k-5" style="edgeStyle=orthogonalEdgeStyle;rounded=0;orthogonalLoop=1;jettySize=auto;html=1;fontStyle=1" parent="oRBbWyLs1qXYL8ngHKHL-1" source="oRBbWyLs1qXYL8ngHKHL-28" target="pte-rjKt5ficqMEGZh8k-4" edge="1">
                    <mxGeometry relative="1" as="geometry"/>
                </mxCell>
                <mxCell id="oRBbWyLs1qXYL8ngHKHL-28" value="scale deployment" style="whiteSpace=wrap;html=1;rounded=1;fillColor=#dae8fc;strokeColor=#6c8ebf;fontStyle=1" parent="oRBbWyLs1qXYL8ngHKHL-1" vertex="1">
                    <mxGeometry x="240" y="640" width="120" height="60" as="geometry"/>
                </mxCell>
                <mxCell id="pte-rjKt5ficqMEGZh8k-4" value="Running" style="whiteSpace=wrap;html=1;rounded=1;fillColor=#d5e8d4;strokeColor=#82b366;fontStyle=1" parent="oRBbWyLs1qXYL8ngHKHL-1" vertex="1">
                    <mxGeometry x="240" y="740" width="120" height="60" as="geometry"/>
                </mxCell>
                <mxCell id="AuAl9gCt2idZt_rKuDMR-1" value="" style="verticalLabelPosition=bottom;html=1;verticalAlign=top;align=center;strokeColor=none;fillColor=#00BEF2;shape=mxgraph.azure.git_repository;" parent="oRBbWyLs1qXYL8ngHKHL-1" vertex="1">
                    <mxGeometry x="70" y="175" width="50" height="50" as="geometry"/>
                </mxCell>
            </root>
        </mxGraphModel>
    </diagram>
</mxfile>